# xmcd CD database file generated by OrangeCD 6.0
#
# Track frame offsets:
#	150
#	29056
#	43231
#	66203
#	81476
#	102096
#	119300
#	137940
#	157312
#	185771
#	201119
#
# Disc length: 2923 seconds
#
# Revision: 2
# Processed by: cddbd v1.5.2PL0 Copyright (c) Steve Scherf et al.
# Submitted via: OrangeCD 6.0
#
DISCID=ac0b690b
DTITLE=Various Artist - Motown Remixed Vol.2
DYEAR=2007
DGENRE=Motown/Compilations
TTITLE0=Jr Walker and The All Stars (Los Amigos Invisibles Mix) - Shotgun
TTITLE1=Martha Reeves and The Vandellas (David Elizondo Mix) - (Love Is Like A) H
TTITLE1=ear Wave
TTITLE2=The Temptations (David Elizondo Mix) - Papa Was A Rollin' Stone
TTITLE3=The Jackson 5 (Spk Mix) - I Want You Back
TTITLE4=Diana Ross ( Chosen Few Mix) - The Boss
TTITLE5=The Jackson 5 (Miami Mix) - Dancing Machine
TTITLE6=The Temptations (Randy Cantor Mix) - I Can't Get Next To You
TTITLE7=Marvin Gaye (Fun Machine Mix) - I Heard It Through The Grapevine
TTITLE8=Teena Marie (Sinodero Nacional Remix) - Square Biz
TTITLE9=Dennis Edwards Featuring Seidah Garrett (Dj U.F. Low Mix) - Don't Look 
TTITLE9=Any Further
TTITLE10=Smokey Robinson (Eric Bodi Rivera Mix) - Aqui Con Tigo (Being With You
TTITLE10=)
EXTD=
EXTT0=
EXTT1=
EXTT2=
EXTT3=
EXTT4=
EXTT5=
EXTT6=
EXTT7=
EXTT8=
EXTT9=
EXTT10=
PLAYORDER=
